<svg height='100px' width='100px'  fill="#e0dede" xmlns="http://www.w3.org/2000/svg" xmlns:xlink="http://www.w3.org/1999/xlink" version="1.1" x="0px" y="0px" viewBox="0 0 100 100" style="enable-background:new 0 0 100 100;" xml:space="preserve"><g><path d="M86,52c0-4.01-6.12-7.4-16.83-9.38C66.15,34.4,58.26,28.5,49,28.5c-9.42,0-17.42,6.1-20.32,14.55   C22.73,44.34,14,47.07,14,52c0,4.44,7.16,7.6,16.77,9.37l-0.01,0.01C34.71,67.72,41.54,71.5,49,71.5c7.28,0,14.01-3.64,18-9.75   l-0.02-0.01C77.7,60.07,86,56.78,86,52z M70.43,48.6C75.55,49.9,77,51.36,77,52c0,1.11-2.6,2.48-7.24,3.57   c0.48-1.81,0.74-3.67,0.74-5.57C70.5,49.53,70.46,49.06,70.43,48.6z M49,31.5c10.2,0,18.5,8.3,18.5,18.5   c0,2.15-0.37,4.24-1.09,6.24C62.05,56.99,56.5,57.5,50,57.5c-7.62,0-13.94-0.7-18.56-1.67C30.82,53.96,30.5,52,30.5,50   C30.5,39.8,38.8,31.5,49,31.5z M28.09,55C24.82,54.02,23,52.93,23,52c0-0.55,1.02-1.69,4.54-2.83c-0.01,0.28-0.04,0.55-0.04,0.83   C27.5,51.69,27.7,53.37,28.09,55z M49,68.5c-5.48,0-10.55-2.39-14.04-6.48C39.75,62.66,44.91,63,50,63c4.29,0,8.65-0.24,12.79-0.69   C59.3,66.22,54.33,68.5,49,68.5z M50,61c-20.04,0-34-4.74-34-9c0-2.44,4.66-5.02,12.05-6.76c-0.13,0.59-0.23,1.18-0.32,1.79   C23.28,48.34,21,50.01,21,52c0,4.92,14.59,7.5,29,7.5s29-2.58,29-7.5c0-2.29-2.99-4.14-8.81-5.52c-0.1-0.58-0.21-1.14-0.35-1.7   C79.6,46.73,84,49.75,84,52C84,56.26,70.04,61,50,61z"></path></g></svg>
